<?xml version="1.0" encoding="UTF-8"?>
<svg xmlns="http://www.w3.org/2000/svg" width="34" height="33" viewBox="0 0 34 33" fill="none">
  <path d="M31.3081 9.21353H2.55364C1.1433 9.21353 0 10.3568 0 11.7672V11.7672C0 13.1775 1.1433 14.3208 2.55364 14.3208H31.3081C32.7185 14.3208 33.8618 13.1775 33.8618 11.7672C33.8618 10.3568 32.7185 9.21353 31.3081 9.21353Z" fill="#E16838"/>
  <path d="M31.3081 18.4271H2.55364C1.1433 18.4271 0 19.5704 0 20.9807V20.9807C0 22.391 1.1433 23.5344 2.55364 23.5344H31.3081C32.7185 23.5344 33.8618 22.391 33.8618 20.9807C33.8618 19.5704 32.7185 18.4271 31.3081 18.4271Z" fill="#5CBBE5"/>
  <path d="M31.3081 0H16.9084C15.498 0 14.3547 1.1433 14.3547 2.55364V2.55365C14.3547 3.96399 15.498 5.10729 16.9084 5.10729H31.3081C32.7184 5.10729 33.8617 3.96399 33.8617 2.55364C33.8617 1.1433 32.7184 0 31.3081 0Z" fill="#F4CD48"/>
  <path d="M16.9533 27.6406H2.55364C1.1433 27.6406 0 28.7839 0 30.1942V30.1942C0 31.6046 1.1433 32.7479 2.55364 32.7479H16.9533C18.3637 32.7479 19.507 31.6046 19.507 30.1942C19.507 28.7839 18.3637 27.6406 16.9533 27.6406Z" fill="#193556"/>
</svg>